<?xml version="1.0" ?>
<!-- Uploaded to: SVG Repo, www.svgrepo.com, Generator: SVG Repo Mixer Tools -->
<svg width="800px" height="800px" viewBox="0 0 117 117" version="1.1" xmlns="http://www.w3.org/2000/svg" xmlns:xlink="http://www.w3.org/1999/xlink">
<title/>
<desc/>
<defs/>
<g fill="none" fill-rule="evenodd" id="Page-1" stroke="none" stroke-width="1">
<g fill-rule="nonzero" id="sun">
<path d="M58.5,86.6 C74,86.6 86.5,74 86.5,58.6 C86.5,43.2 73.9,30.6 58.5,30.6 C43.1,30.6 30.5,43.2 30.5,58.6 C30.5,74 43,86.6 58.5,86.6 Z M58.5,38.7 C69.5,38.7 78.4,47.6 78.4,58.6 C78.4,69.6 69.5,78.5 58.5,78.5 C47.5,78.5 38.6,69.6 38.6,58.6 C38.6,47.6 47.5,38.7 58.5,38.7 Z" fill="#4A4A4A" id="Shape"/>
<path d="M62.6,17.6 L62.6,4.7 C62.6,2.4 60.8,0.6 58.5,0.6 C56.2,0.6 54.4,2.4 54.4,4.7 L54.4,17.6 C54.4,19.9 56.2,21.7 58.5,21.7 C60.8,21.7 62.6,19.9 62.6,17.6 Z" fill="#17AB13" id="Shape"/>
<path d="M54.4,99.6 L54.4,112.5 C54.4,114.8 56.2,116.6 58.5,116.6 C60.8,116.6 62.6,114.8 62.6,112.5 L62.6,99.6 C62.6,97.3 60.8,95.5 58.5,95.5 C56.2,95.5 54.4,97.3 54.4,99.6 Z" fill="#17AB13" id="Shape"/>
<path d="M90.4,32.5 L99.5,23.4 C101.1,21.8 101.1,19.2 99.5,17.6 C97.9,16 95.3,16 93.7,17.6 L84.6,26.7 C83,28.3 83,30.9 84.6,32.5 C85.4,33.3 86.4,33.7 87.5,33.7 C88.6,33.7 89.6,33.3 90.4,32.5 Z" fill="#17AB13" id="Shape"/>
<path d="M17.5,99.6 C18.3,100.4 19.3,100.8 20.4,100.8 C21.4,100.8 22.5,100.4 23.3,99.6 L32.4,90.5 C34,88.9 34,86.3 32.4,84.7 C30.8,83.1 28.2,83.1 26.6,84.7 L17.5,93.8 C15.9,95.4 15.9,98 17.5,99.6 Z" fill="#17AB13" id="Shape"/>
<path d="M116.5,58.6 C116.5,56.3 114.7,54.5 112.4,54.5 L99.5,54.5 C97.2,54.5 95.4,56.3 95.4,58.6 C95.4,60.9 97.2,62.7 99.5,62.7 L112.4,62.7 C114.6,62.7 116.5,60.9 116.5,58.6 Z" fill="#17AB13" id="Shape"/>
<path d="M4.6,62.7 L17.5,62.7 C19.8,62.7 21.6,60.9 21.6,58.6 C21.6,56.3 19.8,54.5 17.5,54.5 L4.6,54.5 C2.3,54.5 0.5,56.3 0.5,58.6 C0.5,60.9 2.4,62.7 4.6,62.7 Z" fill="#17AB13" id="Shape"/>
<path d="M96.6,100.8 C97.6,100.8 98.7,100.4 99.5,99.6 C101.1,98 101.1,95.4 99.5,93.8 L90.4,84.7 C88.8,83.1 86.2,83.1 84.6,84.7 C83,86.3 83,88.9 84.6,90.5 L93.7,99.6 C94.5,100.4 95.6,100.8 96.6,100.8 Z" fill="#17AB13" id="Shape"/>
<path d="M32.4,32.5 C34,30.9 34,28.3 32.4,26.7 L23.3,17.6 C21.7,16 19.1,16 17.5,17.6 C15.9,19.2 15.9,21.8 17.5,23.4 L26.6,32.5 C27.4,33.3 28.4,33.7 29.5,33.7 C30.6,33.7 31.6,33.3 32.4,32.5 Z" fill="#17AB13" id="Shape"/>
</g>
</g>
</svg>