<svg width="1920" height="1080" viewBox="0 0 1920 1080" fill="none" xmlns="http://www.w3.org/2000/svg">
<rect width="1920" height="1080" fill="black"/>
<path d="M606 395.067H629.153V536.001H606V395.067Z" fill="white"/>
<path d="M730.86 442.985C738.51 450.635 742.537 462.715 742.537 479.225V536.001H720.592V480.433C720.592 470.769 718.377 463.319 714.35 458.085C710.122 453.051 704.082 450.434 696.029 450.434C687.372 450.434 680.526 453.454 675.694 459.494C670.862 465.534 668.446 473.587 668.446 484.057V536.001H646.702V432.918H665.628L668.044 446.407C675.694 436.743 686.768 431.71 701.062 431.71C713.142 431.71 723.209 435.535 730.86 442.985Z" fill="white"/>
<path d="M826.134 414.194C823.718 411.778 822.51 408.557 822.51 404.731C822.51 401.107 823.718 397.886 826.336 395.47C828.752 393.054 831.973 391.645 835.798 391.645C839.422 391.645 842.644 393.054 845.06 395.47C847.476 397.886 848.885 401.107 848.885 404.731C848.885 408.557 847.476 411.778 845.06 414.194C842.644 416.61 839.422 417.818 835.798 417.818C831.772 417.818 828.55 416.61 826.134 414.194ZM846.67 536.001H824.725V452.045H784.861V536.001H762.916V452.045H744.997V432.918H762.916V422.65C762.916 413.59 765.13 406.745 769.962 402.114C774.593 397.483 781.841 395.067 791.706 395.067H810.028V414.194H794.726C791.102 414.194 788.686 414.999 787.076 416.61C785.465 418.221 784.861 420.838 784.861 424.261V432.918H846.67V536.001Z" fill="white"/>
<path d="M945.87 442.985C953.52 450.635 957.547 462.715 957.547 479.225V536.001H935.602V480.433C935.602 470.769 933.387 463.319 929.36 458.085C925.132 453.051 919.092 450.434 911.039 450.434C902.382 450.434 895.536 453.454 890.704 459.494C885.872 465.534 883.456 473.587 883.456 484.057V536.001H861.712V432.918H880.638L883.054 446.407C890.704 436.743 901.778 431.71 916.072 431.71C928.152 431.71 938.219 435.535 945.87 442.985Z" fill="white"/>
<path d="M991.616 395.47C994.032 397.886 995.442 401.107 995.442 404.731C995.442 408.557 994.032 411.778 991.616 414.194C988.999 416.61 985.778 417.818 982.154 417.818C978.328 417.818 975.107 416.61 972.691 414.194C970.074 411.778 968.866 408.557 968.866 404.731C968.866 401.107 970.074 397.886 972.691 395.47C975.107 393.054 978.328 391.645 982.154 391.645C985.778 391.645 988.999 393.054 991.616 395.47ZM971.282 432.918H993.026V536.001H971.282V432.918Z" fill="white"/>
<path d="M1014.94 452.045H997.026V432.918H1014.94V404.127H1036.89V432.918H1061.65V452.045H1036.89V505.801C1036.89 509.827 1037.69 512.847 1039.31 514.458C1040.92 516.069 1043.53 516.874 1047.56 516.874H1064.07V536.001H1043.13C1033.27 536.001 1026.02 533.786 1021.59 529.155C1017.16 524.726 1014.94 517.679 1014.94 508.015V452.045Z" fill="white"/>
<path d="M1092.58 432.918L1121.38 512.445L1149.36 432.918H1172.51L1125.8 552.107C1123.39 558.349 1121.17 563.181 1119.16 566.402C1117.15 569.623 1114.53 572.241 1111.71 573.851C1108.69 575.462 1104.66 576.267 1099.83 576.267H1076.48V557.141H1091.78C1095.81 557.141 1098.83 556.537 1100.44 555.329C1102.05 554.121 1103.66 551.101 1105.47 546.671L1109.7 536.806L1069.43 432.918H1092.58Z" fill="white"/>
<path d="M824.104 562.187H869.001C883.296 562.187 895.778 565.207 906.65 571.046C917.321 577.086 925.576 585.341 931.414 595.81C937.052 606.481 940.072 618.762 940.072 632.654C940.072 646.546 937.052 658.827 931.414 669.498C925.576 680.169 917.321 688.423 906.65 694.262C895.778 700.302 883.296 703.121 869.001 703.121H824.104V562.187ZM869.001 682.987C884.101 682.987 895.778 678.558 904.033 669.498C912.086 660.438 916.314 648.157 916.314 632.654C916.314 617.353 912.086 605.071 904.033 596.011C895.778 586.951 884.101 582.321 869.001 582.321H847.257V682.987H869.001Z" fill="white"/>
<path d="M1009.08 600.038V620.373H999.416C990.356 620.373 983.913 623.393 979.887 629.231C975.86 635.07 973.847 642.519 973.847 651.378V703.121H952.103V600.038H971.431L973.847 615.541C976.665 610.709 980.491 607.085 985.323 604.266C989.953 601.447 996.195 600.038 1004.25 600.038H1009.08Z" fill="white"/>
<path d="M1037.18 562.59C1039.59 565.006 1041 568.227 1041 571.851C1041 575.677 1039.59 578.898 1037.18 581.314C1034.56 583.73 1031.34 584.938 1027.72 584.938C1023.89 584.938 1020.67 583.73 1018.25 581.314C1015.64 578.898 1014.43 575.677 1014.43 571.851C1014.43 568.227 1015.64 565.006 1018.25 562.59C1020.67 560.174 1023.89 558.765 1027.72 558.765C1031.34 558.765 1034.56 560.174 1037.18 562.59ZM1016.84 600.038H1038.59V703.121H1016.84V600.038Z" fill="white"/>
<path d="M1043.59 600.038H1066.95L1095.34 679.766L1123.32 600.038H1146.27L1108.22 703.121H1081.65L1043.59 600.038Z" fill="white"/>
<path d="M1149.73 623.997C1153.95 615.943 1159.79 609.903 1167.44 605.474C1175.09 601.045 1183.75 598.83 1193.62 598.83C1203.48 598.83 1212.14 600.843 1219.79 604.87C1227.44 608.897 1233.28 614.735 1237.71 621.983C1242.14 629.433 1244.35 638.09 1244.55 647.955C1244.55 650.774 1244.35 653.391 1243.95 656.21H1166.23V657.418C1166.64 666.478 1169.46 673.525 1174.69 678.759C1179.72 683.994 1186.57 686.611 1195.03 686.611C1201.67 686.611 1207.31 685.202 1211.94 681.981C1216.37 678.759 1219.39 674.33 1221 668.491H1242.74C1240.73 678.961 1235.69 687.618 1227.44 694.262C1219.19 701.107 1208.92 704.329 1196.64 704.329C1185.76 704.329 1176.5 702.315 1168.45 697.886C1160.4 693.457 1154.36 687.417 1149.93 679.363C1145.5 671.511 1143.48 662.25 1143.48 651.781C1143.48 641.311 1145.5 632.05 1149.73 623.997ZM1222.41 640.305C1221.4 632.855 1218.38 627.017 1213.35 622.789C1208.31 618.561 1202.07 616.346 1194.42 616.346C1187.17 616.346 1181.13 618.561 1175.9 622.99C1170.66 627.419 1167.85 633.057 1167.04 640.305H1222.41Z" fill="white"/>
<path d="M794.448 638.409V638.409C794.448 610.064 758.644 597.68 741.132 619.969L700.53 671.644C670.759 709.534 609.893 688.482 609.893 640.295V640.295C609.893 593.028 668.835 571.437 699.367 607.52L741.816 657.688C759.776 678.914 794.448 666.213 794.448 638.409Z" stroke="white" stroke-width="21" stroke-linejoin="bevel"/>
</svg>
