<svg width="800" height="800" viewBox="0 0 800 800" fill="none" xmlns="http://www.w3.org/2000/svg">
<path d="M395.825 285C235.761 285 143.14 322.768 143.14 322.768C134.444 352.637 132.087 375.645 131 424.382C131 424.382 170.117 429.327 189.001 456.305C207.885 483.282 210.672 487.778 214.629 507.561C222.362 546.228 202.489 585.345 202.489 585.345L242.955 620.415L283.87 645.594C292.671 628.031 311.297 606.927 318.94 606.927C326.584 606.927 383.685 616.818 407.965 616.818C432.244 616.818 463.717 610.074 480.803 610.973C497.888 611.872 514.524 645.594 514.524 645.594C514.524 645.594 540.845 631.874 555.889 620.415C571.697 608.374 592.758 585.345 592.758 585.345C592.758 585.345 584.944 567.147 582.866 554.771C578.488 528.69 582.358 512.093 592.758 487.778C600.705 469.194 606.436 457.98 621.983 445.064C637.095 432.509 667.844 424.382 667.844 424.382C670.455 380.025 668.317 357.829 658.402 322.768C658.402 322.768 555.889 285 395.825 285Z" fill="white"/>
<circle cx="400" cy="400" r="353" stroke="white" stroke-width="94"/>
<path d="M492.556 421.63V421.63C492.556 393.285 456.751 380.902 439.239 403.19L398.638 454.865C368.867 492.755 308 471.704 308 423.517V423.517C308 376.25 366.942 354.659 397.474 390.742L439.924 440.91C457.884 462.135 492.556 449.435 492.556 421.63Z" stroke="black" stroke-width="24" stroke-linejoin="bevel"/>
</svg>
