<svg width="1000" height="1000" viewBox="0 0 1000 1000" fill="none" xmlns="http://www.w3.org/2000/svg">
<rect width="1000" height="1000" fill="white"/>
<path d="M198.886 345.067H222.039V486.001H198.886V345.067Z" fill="black"/>
<path d="M323.745 392.985C331.396 400.635 335.423 412.715 335.423 429.225V486.001H313.477V430.433C313.477 420.769 311.263 413.319 307.236 408.085C303.008 403.051 296.968 400.434 288.915 400.434C280.257 400.434 273.412 403.454 268.58 409.494C263.748 415.534 261.332 423.587 261.332 434.057V486.001H239.588V382.918H258.513L260.929 396.407C268.58 386.743 279.653 381.71 293.948 381.71C306.028 381.71 316.095 385.535 323.745 392.985Z" fill="black"/>
<path d="M419.02 364.194C416.604 361.778 415.396 358.557 415.396 354.731C415.396 351.107 416.604 347.886 419.221 345.47C421.637 343.054 424.859 341.645 428.684 341.645C432.308 341.645 435.529 343.054 437.945 345.47C440.362 347.886 441.771 351.107 441.771 354.731C441.771 358.557 440.362 361.778 437.945 364.194C435.529 366.61 432.308 367.818 428.684 367.818C424.658 367.818 421.436 366.61 419.02 364.194ZM439.556 486.001H417.611V402.045H377.747V486.001H355.801V402.045H337.883V382.918H355.801V372.65C355.801 363.59 358.016 356.745 362.848 352.114C367.479 347.483 374.727 345.067 384.592 345.067H402.913V364.194H387.612C383.988 364.194 381.572 364.999 379.962 366.61C378.351 368.221 377.747 370.838 377.747 374.261V382.918H439.556V486.001Z" fill="black"/>
<path d="M538.755 392.985C546.406 400.635 550.433 412.715 550.433 429.225V486.001H528.487V430.433C528.487 420.769 526.273 413.319 522.246 408.085C518.018 403.051 511.978 400.434 503.925 400.434C495.267 400.434 488.422 403.454 483.59 409.494C478.758 415.534 476.342 423.587 476.342 434.057V486.001H454.598V382.918H473.523L475.939 396.407C483.59 386.743 494.663 381.71 508.958 381.71C521.038 381.71 531.105 385.535 538.755 392.985Z" fill="black"/>
<path d="M584.502 345.47C586.918 347.886 588.327 351.107 588.327 354.731C588.327 358.557 586.918 361.778 584.502 364.194C581.885 366.61 578.663 367.818 575.039 367.818C571.214 367.818 567.993 366.61 565.577 364.194C562.959 361.778 561.751 358.557 561.751 354.731C561.751 351.107 562.959 347.886 565.577 345.47C567.993 343.054 571.214 341.645 575.039 341.645C578.663 341.645 581.885 343.054 584.502 345.47ZM564.167 382.918H585.911V486.001H564.167V382.918Z" fill="black"/>
<path d="M607.83 402.045H589.911V382.918H607.83V354.127H629.775V382.918H654.539V402.045H629.775V455.801C629.775 459.827 630.581 462.847 632.191 464.458C633.802 466.069 636.419 466.874 640.446 466.874H656.955V486.001H636.017C626.151 486.001 618.903 483.786 614.474 479.155C610.045 474.726 607.83 467.679 607.83 458.015V402.045Z" fill="black"/>
<path d="M685.47 382.918L714.261 462.445L742.246 382.918H765.399L718.69 502.107C716.274 508.349 714.059 513.181 712.046 516.402C710.033 519.623 707.415 522.241 704.597 523.851C701.577 525.462 697.55 526.267 692.718 526.267H669.363V507.141H684.665C688.691 507.141 691.711 506.537 693.322 505.329C694.933 504.121 696.543 501.101 698.355 496.671L702.583 486.806L662.317 382.918H685.47Z" fill="black"/>
<path d="M416.989 512.186H461.887C476.181 512.186 488.664 515.206 499.536 521.045C510.207 527.085 518.461 535.34 524.3 545.809C529.937 556.48 532.957 568.761 532.957 582.653C532.957 596.545 529.937 608.826 524.3 619.497C518.461 630.168 510.207 638.422 499.536 644.261C488.664 650.301 476.181 653.12 461.887 653.12H416.989V512.186ZM461.887 632.986C476.987 632.986 488.664 628.557 496.919 619.497C504.972 610.437 509.2 598.156 509.2 582.653C509.2 567.352 504.972 555.07 496.919 546.01C488.664 536.95 476.987 532.32 461.887 532.32H440.143V632.986H461.887Z" fill="black"/>
<path d="M601.966 550.037V570.372H592.302C583.242 570.372 576.799 573.392 572.772 579.23C568.746 585.069 566.732 592.518 566.732 601.377V653.12H544.989V550.037H564.316L566.732 565.54C569.551 560.708 573.377 557.084 578.209 554.265C582.839 551.446 589.081 550.037 597.134 550.037H601.966Z" fill="black"/>
<path d="M630.064 512.589C632.48 515.005 633.89 518.226 633.89 521.85C633.89 525.676 632.48 528.897 630.064 531.313C627.447 533.729 624.226 534.937 620.602 534.937C616.776 534.937 613.555 533.729 611.139 531.313C608.522 528.897 607.314 525.676 607.314 521.85C607.314 518.226 608.522 515.005 611.139 512.589C613.555 510.173 616.776 508.764 620.602 508.764C624.226 508.764 627.447 510.173 630.064 512.589ZM609.73 550.037H631.474V653.12H609.73V550.037Z" fill="black"/>
<path d="M636.48 550.037H659.835L688.223 629.765L716.208 550.037H739.16L701.108 653.12H674.532L636.48 550.037Z" fill="black"/>
<path d="M742.611 573.996C746.839 565.942 752.678 559.902 760.329 555.473C767.979 551.044 776.637 548.829 786.502 548.829C796.367 548.829 805.025 550.842 812.675 554.869C820.326 558.896 826.165 564.734 830.594 571.982C835.023 579.432 837.238 588.089 837.439 597.954C837.439 600.773 837.238 603.39 836.835 606.209H759.121V607.417C759.523 616.477 762.342 623.524 767.577 628.758C772.61 633.993 779.455 636.61 787.911 636.61C794.555 636.61 800.193 635.201 804.823 631.98C809.253 628.758 812.273 624.329 813.883 618.49H835.627C833.614 628.96 828.581 637.617 820.326 644.261C812.071 651.106 801.803 654.328 789.522 654.328C778.65 654.328 769.389 652.314 761.335 647.885C753.282 643.456 747.242 637.416 742.813 629.362C738.383 621.51 736.37 612.249 736.37 601.78C736.37 591.31 738.383 582.049 742.611 573.996ZM815.293 590.304C814.286 582.854 811.266 577.016 806.233 572.788C801.199 568.56 794.958 566.345 787.307 566.345C780.059 566.345 774.019 568.56 768.785 572.989C763.55 577.418 760.731 583.056 759.926 590.304H815.293Z" fill="black"/>
<path d="M387.334 588.408V588.408C387.334 560.063 351.53 547.68 334.018 569.968L293.416 621.643C263.645 659.533 202.778 638.481 202.778 590.294V590.294C202.778 543.027 261.72 521.436 292.252 557.519L334.702 607.687C352.662 628.913 387.334 616.212 387.334 588.408Z" stroke="black" stroke-width="21" stroke-linejoin="bevel"/>
</svg>
