<svg width="1000" height="1000" viewBox="0 0 1000 1000" fill="none" xmlns="http://www.w3.org/2000/svg">
<rect width="1000" height="1000" rx="500" fill="white"/>
<path d="M198.887 345.067H222.04V486.001H198.887V345.067Z" fill="black"/>
<path d="M323.746 392.985C331.397 400.635 335.424 412.715 335.424 429.225V486.001H313.478V430.433C313.478 420.769 311.264 413.319 307.237 408.085C303.009 403.051 296.969 400.434 288.916 400.434C280.258 400.434 273.413 403.454 268.581 409.494C263.749 415.534 261.333 423.587 261.333 434.057V486.001H239.589V382.918H258.514L260.93 396.407C268.581 386.743 279.654 381.71 293.949 381.71C306.029 381.71 316.096 385.535 323.746 392.985Z" fill="black"/>
<path d="M419.021 364.194C416.605 361.778 415.397 358.557 415.397 354.731C415.397 351.107 416.605 347.886 419.222 345.47C421.638 343.054 424.86 341.645 428.685 341.645C432.309 341.645 435.53 343.054 437.946 345.47C440.362 347.886 441.772 351.107 441.772 354.731C441.772 358.557 440.362 361.778 437.946 364.194C435.53 366.61 432.309 367.818 428.685 367.818C424.658 367.818 421.437 366.61 419.021 364.194ZM439.557 486.001H417.612V402.045H377.748V486.001H355.802V402.045H337.884V382.918H355.802V372.65C355.802 363.59 358.017 356.745 362.849 352.114C367.48 347.483 374.728 345.067 384.593 345.067H402.914V364.194H387.613C383.989 364.194 381.573 364.999 379.962 366.61C378.352 368.221 377.748 370.838 377.748 374.261V382.918H439.557V486.001Z" fill="black"/>
<path d="M538.756 392.985C546.407 400.635 550.434 412.715 550.434 429.225V486.001H528.488V430.433C528.488 420.769 526.274 413.319 522.247 408.085C518.019 403.051 511.979 400.434 503.926 400.434C495.268 400.434 488.423 403.454 483.591 409.494C478.759 415.534 476.343 423.587 476.343 434.057V486.001H454.599V382.918H473.524L475.94 396.407C483.591 386.743 494.664 381.71 508.959 381.71C521.039 381.71 531.106 385.535 538.756 392.985Z" fill="black"/>
<path d="M584.503 345.47C586.919 347.886 588.328 351.107 588.328 354.731C588.328 358.557 586.919 361.778 584.503 364.194C581.886 366.61 578.664 367.818 575.04 367.818C571.215 367.818 567.994 366.61 565.578 364.194C562.96 361.778 561.752 358.557 561.752 354.731C561.752 351.107 562.96 347.886 565.578 345.47C567.994 343.054 571.215 341.645 575.04 341.645C578.664 341.645 581.886 343.054 584.503 345.47ZM564.168 382.918H585.912V486.001H564.168V382.918Z" fill="black"/>
<path d="M607.831 402.045H589.912V382.918H607.831V354.127H629.776V382.918H654.54V402.045H629.776V455.801C629.776 459.827 630.582 462.847 632.192 464.458C633.803 466.069 636.42 466.874 640.447 466.874H656.956V486.001H636.018C626.152 486.001 618.904 483.786 614.475 479.155C610.046 474.726 607.831 467.679 607.831 458.015V402.045Z" fill="black"/>
<path d="M685.471 382.918L714.262 462.445L742.247 382.918H765.4L718.691 502.107C716.275 508.349 714.06 513.181 712.047 516.402C710.034 519.623 707.416 522.241 704.598 523.851C701.578 525.462 697.551 526.267 692.719 526.267H669.364V507.141H684.666C688.692 507.141 691.712 506.537 693.323 505.329C694.934 504.121 696.544 501.101 698.356 496.671L702.584 486.806L662.318 382.918H685.471Z" fill="black"/>
<path d="M416.99 512.187H461.888C476.182 512.187 488.665 515.207 499.537 521.045C510.208 527.085 518.462 535.34 524.301 545.809C529.938 556.48 532.958 568.761 532.958 582.653C532.958 596.545 529.938 608.827 524.301 619.497C518.462 630.168 510.208 638.423 499.537 644.262C488.665 650.302 476.182 653.12 461.888 653.12H416.99V512.187ZM461.888 632.987C476.988 632.987 488.665 628.557 496.92 619.497C504.973 610.437 509.201 598.156 509.201 582.653C509.201 567.352 504.973 555.071 496.92 546.011C488.665 536.951 476.988 532.32 461.888 532.32H440.144V632.987H461.888Z" fill="black"/>
<path d="M601.967 550.037V570.372H592.303C583.243 570.372 576.8 573.392 572.773 579.231C568.747 585.069 566.733 592.519 566.733 601.377V653.12H544.989V550.037H564.317L566.733 565.54C569.552 560.708 573.377 557.084 578.209 554.265C582.84 551.447 589.081 550.037 597.135 550.037H601.967Z" fill="black"/>
<path d="M630.065 512.589C632.481 515.005 633.891 518.227 633.891 521.851C633.891 525.676 632.481 528.897 630.065 531.313C627.448 533.729 624.227 534.937 620.603 534.937C616.777 534.937 613.556 533.729 611.14 531.313C608.523 528.897 607.315 525.676 607.315 521.851C607.315 518.227 608.523 515.005 611.14 512.589C613.556 510.173 616.777 508.764 620.603 508.764C624.227 508.764 627.448 510.173 630.065 512.589ZM609.731 550.037H631.475V653.12H609.731V550.037Z" fill="black"/>
<path d="M636.481 550.037H659.836L688.224 629.765L716.209 550.037H739.161L701.109 653.12H674.533L636.481 550.037Z" fill="black"/>
<path d="M742.612 573.996C746.84 565.943 752.679 559.903 760.33 555.473C767.98 551.044 776.638 548.829 786.503 548.829C796.368 548.829 805.026 550.843 812.676 554.869C820.327 558.896 826.166 564.735 830.595 571.983C835.024 579.432 837.239 588.09 837.44 597.955C837.44 600.774 837.239 603.391 836.836 606.21H759.122V607.418C759.524 616.478 762.343 623.524 767.578 628.759C772.611 633.994 779.456 636.611 787.912 636.611C794.556 636.611 800.194 635.201 804.824 631.98C809.254 628.759 812.274 624.329 813.884 618.491H835.628C833.615 628.96 828.582 637.618 820.327 644.262C812.072 651.107 801.804 654.328 789.523 654.328C778.651 654.328 769.39 652.315 761.336 647.885C753.283 643.456 747.243 637.416 742.814 629.363C738.384 621.511 736.371 612.249 736.371 601.78C736.371 591.311 738.384 582.049 742.612 573.996ZM815.294 590.304C814.287 582.855 811.267 577.016 806.234 572.788C801.2 568.56 794.959 566.345 787.308 566.345C780.06 566.345 774.02 568.56 768.786 572.989C763.551 577.419 760.732 583.056 759.927 590.304H815.294Z" fill="black"/>
<path d="M387.335 588.408V588.408C387.335 560.063 351.531 547.68 334.019 569.968L293.417 621.643C263.646 659.533 202.779 638.481 202.779 590.295V590.295C202.779 543.028 261.721 521.437 292.253 557.52L334.703 607.688C352.663 628.913 387.335 616.213 387.335 588.408Z" stroke="black" stroke-width="21" stroke-linejoin="bevel"/>
</svg>
